<svg width="353" height="408" viewBox="0 0 353 408" fill="none" xmlns="http://www.w3.org/2000/svg">
<path d="M94.4919 185.747C93.149 183.432 93.9373 180.468 96.2525 179.125C152.721 146.225 225.454 165.379 258.354 221.874C259.697 224.189 258.909 227.153 256.594 228.496C254.279 229.839 251.315 229.05 249.972 226.735C219.758 174.871 152.978 157.267 101.114 187.481C98.7985 188.824 95.8347 188.036 94.4918 185.72L94.4919 185.747Z" fill="url(#paint0_linear_61_23)"/>
<path d="M130.192 115.269C131.273 112.277 134.575 110.717 137.566 111.799C210.782 138.126 248.954 219.112 222.627 292.327C221.546 295.319 218.245 296.879 215.253 295.798C212.261 294.716 210.701 291.415 211.783 288.423C235.946 221.191 200.921 146.807 133.662 122.644C130.67 121.562 129.11 118.261 130.192 115.269Z" fill="url(#paint1_linear_61_23)"/>
<path d="M221.781 93.9102C225.35 92.5889 229.278 94.4137 230.599 97.9826C262.634 184.915 217.97 281.676 131.038 313.711C127.469 315.032 123.541 313.207 122.22 309.638C120.899 306.069 122.724 302.141 126.292 300.82C206.113 271.401 247.101 182.55 217.709 102.729C216.387 99.1596 218.212 95.2314 221.781 93.9102Z" fill="url(#paint2_linear_61_23)"/>
<path d="M311.35 161.088C315.28 163.34 316.634 168.322 314.382 172.252C259.632 267.987 137.204 301.31 41.4692 246.56C37.5393 244.309 36.1858 239.326 38.4373 235.396C40.6887 231.466 45.6712 230.113 49.6011 232.364C137.502 282.638 249.913 252.048 300.187 164.147C302.438 160.217 307.421 158.864 311.35 161.115L311.35 161.088Z" fill="url(#paint3_linear_61_23)"/>
<path d="M318.631 294.157C319.585 299.461 316.058 304.517 310.781 305.471C181.59 328.793 57.5106 242.629 34.189 113.439C33.2342 108.135 36.7615 103.079 42.0389 102.125C47.343 101.17 52.3983 104.697 53.3529 109.975C74.7653 228.61 188.708 307.72 307.343 286.307C312.647 285.353 317.703 288.88 318.657 294.157L318.631 294.157Z" fill="url(#paint4_linear_61_23)"/>
<path d="M202.85 402.644C198.762 407.569 191.457 408.238 186.533 404.15C66.3985 304.154 50.0258 125.084 149.996 4.95011C154.084 0.0259626 161.389 -0.643387 166.313 3.44455C171.237 7.53249 171.907 14.8382 167.819 19.7623C75.9984 130.075 91.059 294.506 201.371 386.3C206.296 390.388 206.965 397.694 202.877 402.618L202.85 402.644Z" fill="url(#paint5_linear_61_23)"/>
<mask id="path-7-inside-1_61_23" fill="white">
<path d="M15.3034 380.055C7.67504 380.086 1.48897 373.922 1.45859 366.321C0.714877 180.254 151.476 28.2827 337.543 27.539C345.171 27.5085 351.357 33.6719 351.388 41.2735C351.418 48.8751 345.255 55.0879 337.653 55.1183C166.816 55.8011 28.3549 195.347 29.0379 366.21C29.0684 373.839 22.905 380.025 15.3034 380.055Z"/>
</mask>
<path d="M15.0795 324.056C38.4495 323.962 57.3652 342.841 57.4581 366.097L-54.541 366.544C-54.3872 405.003 -23.0994 436.209 15.5272 436.055L15.0795 324.056ZM57.4581 366.097C56.838 210.958 182.627 84.1586 337.767 83.5385L337.319 -28.4606C120.324 -27.5933 -55.4083 149.55 -54.541 366.544L57.4581 366.097ZM337.767 83.5385C314.397 83.6319 295.481 64.753 295.388 41.4973L407.387 41.0497C407.233 2.59068 375.945 -28.615 337.319 -28.4606L337.767 83.5385ZM295.388 41.4973C295.295 18.1711 314.103 -0.788062 337.429 -0.881296L337.877 111.118C376.406 110.964 407.541 79.5792 407.387 41.0497L295.388 41.4973ZM337.429 -0.881296C135.668 -0.07485 -27.7683 164.64 -26.9617 366.434L85.0374 365.987C84.4781 226.054 197.964 111.677 337.877 111.118L337.429 -0.881296ZM-26.9617 366.434C-27.0551 343.064 -8.17604 324.149 15.0795 324.056L15.5272 436.055C53.986 435.901 85.1918 404.613 85.0374 365.987L-26.9617 366.434Z" fill="url(#paint6_linear_61_23)" mask="url(#path-7-inside-1_61_23)"/>
<defs>
<linearGradient id="paint0_linear_61_23" x1="93.8948" y1="196.525" x2="258.89" y2="195.866" gradientUnits="userSpaceOnUse">
<stop stop-color="#CC01FF"/>
<stop offset="1" stop-color="#0030FF"/>
</linearGradient>
<linearGradient id="paint1_linear_61_23" x1="130.2" y1="203.983" x2="230.808" y2="203.581" gradientUnits="userSpaceOnUse">
<stop stop-color="#FF1F00"/>
<stop offset="1" stop-color="#CC01FF"/>
</linearGradient>
<linearGradient id="paint2_linear_61_23" x1="121.398" y1="204.017" x2="241.157" y2="203.538" gradientUnits="userSpaceOnUse">
<stop stop-color="#0090D5"/>
<stop offset="1" stop-color="#FF1F00"/>
</linearGradient>
<linearGradient id="paint3_linear_61_23" x1="37.2709" y1="217.183" x2="315.651" y2="216.071" gradientUnits="userSpaceOnUse">
<stop stop-color="#5555C6"/>
<stop offset="1" stop-color="#0090D5"/>
</linearGradient>
<linearGradient id="paint4_linear_61_23" x1="34.4261" y1="206.126" x2="318.434" y2="204.991" gradientUnits="userSpaceOnUse">
<stop stop-color="#EF5A24"/>
<stop offset="1" stop-color="#5555C6"/>
</linearGradient>
<linearGradient id="paint5_linear_61_23" x1="84.5898" y1="204.164" x2="204.749" y2="203.684" gradientUnits="userSpaceOnUse">
<stop stop-color="#F1B01B"/>
<stop offset="1" stop-color="#EF5A24"/>
</linearGradient>
<linearGradient id="paint6_linear_61_23" x1="0.811786" y1="204.499" x2="352.034" y2="203.095" gradientUnits="userSpaceOnUse">
<stop stop-color="#53C373"/>
<stop offset="1" stop-color="#F1B01B"/>
</linearGradient>
</defs>
</svg>
