<svg width="1294" height="648" viewBox="0 0 1294 648" fill="none" xmlns="http://www.w3.org/2000/svg">
<path d="M148.682 425.543H149.17C166.423 425.543 179.688 422.044 188.965 415.045C198.405 407.883 203.125 398.199 203.125 385.992C203.125 373.622 198.812 363.775 190.186 356.451C181.722 348.964 166.423 341.884 144.287 335.211C104.085 323.655 74.7068 310.309 56.1521 295.172C37.7602 279.872 28.5643 259.365 28.5643 233.648C28.5643 207.77 39.7133 186.529 62.0115 169.928C84.3097 153.326 112.874 145.025 147.705 145.025C182.699 145.025 211.263 154.303 233.398 172.857C255.534 191.249 266.195 214.361 265.381 242.193L265.137 243.414H202.881C202.881 228.277 197.835 216.233 187.744 207.281C177.816 198.329 164.225 193.854 146.973 193.854C129.72 193.854 116.292 197.597 106.689 205.084C97.2491 212.408 92.5291 221.848 92.5291 233.404C92.5291 244.798 97.3305 253.993 106.934 260.992C116.699 267.828 134.277 275.234 159.668 283.209C195.964 293.3 222.9 306.484 240.479 322.76C258.219 338.873 267.09 360.195 267.09 386.725C267.09 413.255 256.348 434.495 234.863 450.445C213.542 466.233 184.896 474.127 148.926 474.127C125.326 474.127 103.76 470.221 84.2283 462.408C64.6971 454.433 48.9907 442.551 37.1092 426.764C25.2277 410.976 19.4497 392.665 19.7752 371.832L20.2635 370.367H82.5193C82.5193 407.151 104.574 425.543 148.682 425.543ZM429.326 425.543H429.814C447.067 425.543 460.332 422.044 469.609 415.045C479.049 407.883 483.77 398.199 483.77 385.992C483.77 373.622 479.456 363.775 470.83 356.451C462.367 348.964 447.067 341.884 424.932 335.211C384.73 323.655 355.352 310.309 336.797 295.172C318.405 279.872 309.209 259.365 309.209 233.648C309.209 207.77 320.358 186.529 342.656 169.928C364.954 153.326 393.519 145.025 428.35 145.025C463.343 145.025 491.908 154.303 514.043 172.857C536.178 191.249 546.839 214.361 546.025 242.193L545.781 243.414H483.525C483.525 228.277 478.48 216.233 468.389 207.281C458.46 198.329 444.87 193.854 427.617 193.854C410.365 193.854 396.937 197.597 387.334 205.084C377.894 212.408 373.174 221.848 373.174 233.404C373.174 244.798 377.975 253.993 387.578 260.992C397.344 267.828 414.922 275.234 440.312 283.209C476.608 293.3 503.545 306.484 521.123 322.76C538.864 338.873 547.734 360.195 547.734 386.725C547.734 413.255 536.992 434.495 515.508 450.445C494.186 466.233 465.54 474.127 429.57 474.127C405.97 474.127 384.404 470.221 364.873 462.408C345.342 454.433 329.635 442.551 317.754 426.764C305.872 410.976 300.094 392.665 300.42 371.832L300.908 370.367H363.164C363.164 407.151 385.218 425.543 429.326 425.543ZM812.266 149.176V198.492H721.689V469H657.48V198.492H567.393V149.176H812.266ZM1101.7 149.176V469H1037.73V335.943H907.119V469H842.91V149.176H907.119V286.627H1037.73V149.176H1101.7Z" fill="white"/>
<path d="M26.9874 544.843C26.9874 548.188 28.1987 550.772 30.6214 552.595C33.0713 554.418 36.1882 555.329 39.9719 555.329C43.7556 555.329 46.7091 554.567 48.8324 553.044C50.9556 551.493 52.0173 549.426 52.0173 546.842C52.0173 544.258 51.0645 542.15 49.159 540.518C47.2808 538.886 44.0551 537.525 39.4819 536.438C27.4773 533.555 21.4751 528.277 21.4751 520.607C21.4751 516.391 23.1899 512.909 26.6198 510.162C30.0497 507.387 34.5412 506 40.0944 506C45.6747 506 50.2343 507.565 53.773 510.692C57.3118 513.82 59.0131 517.574 58.877 521.953L58.7954 522.199H51.8948C51.8948 518.988 50.8468 516.432 48.7508 514.527C46.6547 512.623 43.7556 511.672 40.0535 511.672C36.3787 511.672 33.5613 512.474 31.6014 514.079C29.6687 515.657 28.7023 517.711 28.7023 520.24C28.7023 522.742 29.7367 524.769 31.8055 526.319C33.8743 527.843 37.2634 529.203 41.9726 530.4C53.4872 533.31 59.2445 538.737 59.2445 546.679C59.2445 551.004 57.4887 554.472 53.9772 557.083C50.4657 559.694 45.8517 561 40.1352 561C36.5148 561 33.1665 560.375 30.0906 559.123C27.0418 557.845 24.5783 555.968 22.7 553.493C20.8218 551.017 19.9235 548.202 20.0051 545.047L20.0868 544.843H26.9874ZM102.997 560.143L97.9741 546.353H75.5577L70.4945 560.143H63.1039L83.8057 506.694H90.0122L110.346 560.143H102.997ZM86.7864 515.956L77.8034 540.314H95.8099L86.9905 515.956H86.7864ZM157.365 506.694V560.143H150.138V536.52H124.128V560.143H116.901V506.694H124.128V530.848H150.138V506.694H157.365ZM204.465 560.143L199.443 546.353H177.027L171.963 560.143H164.573L185.274 506.694H191.481L211.815 560.143H204.465ZM188.255 515.956L179.272 540.314H197.279L188.459 515.956H188.255ZM232.702 560.143H225.515V540.845L207.018 506.694H215.307L229.271 533.867L243.236 506.694H251.484L232.702 541.334V560.143ZM286.58 560.143L281.557 546.353H259.141L254.078 560.143H246.687L267.388 506.694H273.596L293.929 560.143H286.58ZM270.37 515.956L261.387 540.314H279.394L270.574 515.956H270.37ZM316.899 512.365H307.711V554.472H316.899C321.825 554.472 325.718 552.881 328.577 549.698C331.461 546.489 332.904 542.286 332.904 537.091V529.706C332.904 524.537 331.461 520.362 328.577 517.18C325.691 513.97 321.798 512.365 316.899 512.365ZM316.899 560.143H300.484V506.694H316.899C323.921 506.694 329.543 508.829 333.761 513.1C338.008 517.343 340.132 522.905 340.132 529.788V537.091C340.132 543.973 338.008 549.535 333.761 553.779C329.543 558.022 323.921 560.143 316.899 560.143ZM369.919 536.968H356.445V560.143H349.218V506.694H368.572C374.452 506.694 378.929 507.986 382.005 510.57C385.081 513.154 386.62 516.935 386.62 521.913C386.62 527.462 383.816 531.46 378.208 533.908C383.734 535.703 386.497 539.905 386.497 546.516V551.534C386.497 555.179 387.314 557.749 388.947 559.245V560.143H381.475C379.977 558.81 379.229 555.927 379.229 551.493V546.597C379.229 543.687 378.385 541.361 376.698 539.621C375.01 537.853 372.75 536.968 369.919 536.968ZM356.445 512.365V531.297H367.837C371.92 531.297 374.86 530.536 376.656 529.012C378.48 527.462 379.393 525.068 379.393 521.831C379.393 515.521 375.786 512.365 368.572 512.365H356.445ZM405.914 506.694V560.143H398.645V506.694H405.914ZM443.276 544.843C443.276 548.188 444.487 550.772 446.91 552.595C449.361 554.418 452.477 555.329 456.261 555.329C460.044 555.329 462.998 554.567 465.121 553.044C467.245 551.493 468.306 549.426 468.306 546.842C468.306 544.258 467.354 542.15 465.448 540.518C463.57 538.886 460.344 537.525 455.77 536.438C443.766 533.555 437.764 528.277 437.764 520.607C437.764 516.391 439.479 512.909 442.908 510.162C446.339 507.387 450.831 506 456.383 506C461.964 506 466.524 507.565 470.062 510.692C473.6 513.82 475.302 517.574 475.166 521.953L475.084 522.199H468.184C468.184 518.988 467.136 516.432 465.039 514.527C462.944 512.623 460.044 511.672 456.343 511.672C452.667 511.672 449.85 512.474 447.891 514.079C445.957 515.657 444.991 517.711 444.991 520.24C444.991 522.742 446.026 524.769 448.094 526.319C450.164 527.843 453.552 529.203 458.262 530.4C469.776 533.31 475.534 538.737 475.534 546.679C475.534 551.004 473.778 554.472 470.266 557.083C466.754 559.694 462.141 561 456.424 561C452.803 561 449.455 560.375 446.379 559.123C443.331 557.845 440.867 555.968 438.989 553.493C437.11 551.017 436.212 548.202 436.294 545.047L436.376 544.843H443.276ZM516.142 543.129H523.042L523.124 543.333C523.232 548.447 521.463 552.676 517.816 556.023C514.168 559.341 509.35 561 503.361 561C497.373 561 492.473 558.879 488.662 554.635C484.85 550.365 482.945 544.911 482.945 538.273V528.767C482.945 522.13 484.85 516.677 488.662 512.406C492.473 508.135 497.413 506 503.483 506C509.554 506 514.372 507.605 517.938 510.814C521.532 513.998 523.274 518.267 523.165 523.626L523.083 523.831H516.142C516.142 520.022 515.025 517.044 512.794 514.895C510.588 512.746 507.485 511.672 503.483 511.672C499.51 511.672 496.311 513.277 493.889 516.486C491.466 519.696 490.255 523.762 490.255 528.685V538.273C490.255 543.252 491.466 547.345 493.889 550.555C496.311 553.737 499.523 555.329 503.524 555.329C507.526 555.329 510.629 554.268 512.834 552.147C515.039 549.997 516.142 546.992 516.142 543.129ZM539.764 506.694V560.143H532.496V506.694H539.764ZM584.373 529.665V535.336H559.833V554.472H588.089V560.143H552.606V506.694H587.721V512.365H559.833V529.665H584.373ZM636.251 506.694V560.143H629.023L603.258 518.812L603.013 518.852V560.143H595.787V506.694H603.013L628.779 547.943L629.023 547.862V506.694H636.251ZM679.554 543.129H686.455L686.536 543.333C686.645 548.447 684.876 552.676 681.228 556.023C677.581 559.341 672.763 561 666.774 561C660.785 561 655.885 558.879 652.074 554.635C648.263 550.365 646.358 544.911 646.358 538.273V528.767C646.358 522.13 648.263 516.677 652.074 512.406C655.885 508.135 660.826 506 666.896 506C672.966 506 677.784 507.605 681.351 510.814C684.943 513.998 686.685 518.267 686.577 523.626L686.495 523.831H679.554C679.554 520.022 678.438 517.044 676.205 514.895C674.001 512.746 670.898 511.672 666.896 511.672C662.921 511.672 659.723 513.277 657.3 516.486C654.878 519.696 653.666 523.762 653.666 528.685V538.273C653.666 543.252 654.878 547.345 657.3 550.555C659.723 553.737 662.935 555.329 666.937 555.329C670.938 555.329 674.041 554.268 676.247 552.147C678.451 549.997 679.554 546.992 679.554 543.129ZM727.307 529.665V535.336H702.767V554.472H731.023V560.143H695.54V506.694H730.655V512.365H702.767V529.665H727.307ZM795.335 506.694V512.365H778.144V560.143H770.918V512.365H753.768V506.694H795.335ZM832.391 560.143L827.369 546.353H804.951L799.889 560.143H792.498L813.2 506.694H819.406L839.741 560.143H832.391ZM816.18 515.956L807.197 540.314H825.204L816.385 515.956H816.18ZM853.522 506.694V554.472H878.837V560.143H846.295V506.694H853.522ZM917.895 529.665V535.336H893.355V554.472H921.61V560.143H886.127V506.694H921.243V512.365H893.355V529.665H917.895ZM969.772 506.694V560.143H962.545L936.78 518.812L936.535 518.852V560.143H929.308V506.694H936.535L962.3 547.943L962.545 547.862V506.694H969.772ZM1018.42 506.694V512.365H1001.23V560.143H994.006V512.365H976.857V506.694H1018.42ZM1086.33 506.694V560.143H1079.11V536.52H1053.09V560.143H1045.87V506.694H1053.09V530.848H1079.11V506.694H1086.33ZM1130.61 506.775H1137.92V543.007C1137.92 548.746 1136.06 553.18 1132.33 556.308C1128.62 559.436 1123.7 561 1117.54 561C1111.4 561 1106.52 559.436 1102.93 556.308C1099.34 553.152 1097.54 548.719 1097.54 543.007V506.775H1104.81V543.007C1104.81 546.978 1105.93 550.024 1108.15 552.147C1110.42 554.268 1113.53 555.329 1117.5 555.329C1121.48 555.329 1124.65 554.268 1127.02 552.147C1129.41 550.024 1130.61 546.978 1130.61 543.007V506.775ZM1189.35 506.694V560.143H1182.12L1156.36 518.812L1156.11 518.852V560.143H1148.89V506.694H1156.11L1181.88 547.943L1182.12 547.862V506.694H1189.35ZM1238 506.694V512.365H1220.81V560.143H1213.59V512.365H1196.43V506.694H1238Z" fill="white"/>
<path d="M1222.33 393.375H1236.08V461.344H1224.36L1187.95 427.984C1182.07 422.62 1177.22 418.896 1173.42 416.812C1169.57 414.729 1165.56 413.687 1161.39 413.687C1157.17 413.687 1153.55 415.042 1150.53 417.75C1147.46 420.406 1145.92 424 1145.92 428.531C1145.92 434.417 1147.59 438.844 1150.92 441.812C1154.2 444.729 1158.86 446.187 1164.91 446.187V462.75L1164.52 462.906C1155.14 463.115 1147.41 460.094 1141.31 453.844C1135.22 447.594 1132.17 439.365 1132.17 429.156C1132.17 418.948 1134.85 410.979 1140.22 405.25C1145.58 399.469 1152.72 396.578 1161.62 396.578C1167.2 396.578 1172.59 398.115 1177.8 401.187C1182.95 404.208 1189.65 409.443 1197.87 416.891L1221.94 439.703L1222.33 439.469V393.375ZM1199.2 331.381H1170.69C1154.23 331.381 1146 336.876 1146 347.866C1146 358.855 1154.23 364.35 1170.69 364.35H1199.2C1215.71 364.35 1223.97 358.803 1223.97 347.709C1223.97 336.824 1215.71 331.381 1199.2 331.381ZM1173.27 314.272H1196.7C1209.93 314.272 1220.06 317.215 1227.09 323.1C1234.12 328.985 1237.64 337.215 1237.64 347.787C1237.64 358.308 1234.12 366.537 1227.09 372.475C1220.06 378.412 1209.93 381.381 1196.7 381.381H1173.27C1160.14 381.381 1150.04 378.439 1142.95 372.553C1135.87 366.616 1132.33 358.412 1132.33 347.944C1132.33 337.423 1135.87 329.194 1142.95 323.256C1150.04 317.267 1160.14 314.272 1173.27 314.272ZM1222.33 232.825H1236.08V300.794H1224.36L1187.95 267.434C1182.07 262.07 1177.22 258.346 1173.42 256.262C1169.57 254.179 1165.56 253.137 1161.39 253.137C1157.17 253.137 1153.55 254.492 1150.53 257.2C1147.46 259.856 1145.92 263.45 1145.92 267.981C1145.92 273.867 1147.59 278.294 1150.92 281.262C1154.2 284.179 1158.86 285.637 1164.91 285.637V302.2L1164.52 302.356C1155.14 302.565 1147.41 299.544 1141.31 293.294C1135.22 287.044 1132.17 278.815 1132.17 268.606C1132.17 258.398 1134.85 250.429 1140.22 244.7C1145.58 238.919 1152.72 236.028 1161.62 236.028C1167.2 236.028 1172.59 237.565 1177.8 240.637C1182.95 243.658 1189.65 248.893 1197.87 256.341L1221.94 279.153L1222.33 278.919V232.825ZM1199.52 179.894H1157.95L1157.8 180.284L1160.84 181.691L1199.52 207.394V179.894ZM1133.66 162.863L1199.52 162.862V149.894H1213.27V162.862H1236V179.894H1213.27V223.8L1202.8 224.269L1133.66 180.441V162.863Z" fill="white"/>
</svg>
